<svg xmlns="http://www.w3.org/2000/svg" width="145.499" height="314.289"><g transform="translate(-271 -93.474)"><path d="M328 191a56 47.5 0 0 0-56 47.5 56 47.5 0 0 0 56 47.5 56 47.5 0 0 0 56-47.5 56 47.5 0 0 0-56-47.5zm0 3a26 45 0 0 1 26 45 26 45 0 0 1-26 45 26 45 0 0 1-26-45 26 45 0 0 1 26-45z" stroke="#f55" stroke-width="2"/><circle cy="187" cx="388" stroke-linecap="null" stroke-linejoin="null" r="18" stroke="#0f0" stroke-width="2"/><path d="M382.263 363c9.466-13.29 28.024-48.788-46.263-45.75-57.913 5.174-51.127-19.746-51.627-19.746-21.456 36.822 5.557 47.777 47.61 46.63 36.12-.672 47.65-5.616 50.28 18.866z" stroke-linecap="null" stroke-linejoin="null" stroke="#f55" stroke-width="2"/><path d="M278.75 152.25c.75 0 22.5-19.5 22-20.25s26.75 29.25 26.25 28.5 71.75-65.25 71.25-66 17.75 15 17.25 14.25-91 90-91.5 89.25z" stroke-linecap="null" stroke-linejoin="null" fill="#0f0" stroke="#ff7f00" stroke-width="2"/><path d="M277.435 363.618c21.383 28.207 40.097 33.188 75.897 29.492-34.777 28.034-79.698 10.284-75.897-29.492z" stroke-linecap="null" stroke-linejoin="null" stroke="#ff2a2a" stroke-width="2"/></g></svg>